<?xml version="1.0" encoding="utf-8"?>
<!-- Generator: Adobe Illustrator 16.0.0, SVG Export Plug-In . SVG Version: 6.00 Build 0)  -->
<!DOCTYPE svg PUBLIC "-//W3C//DTD SVG 1.1//EN" "http://www.w3.org/Graphics/SVG/1.1/DTD/svg11.dtd">
<svg version="1.1" xmlns="http://www.w3.org/2000/svg" xmlns:xlink="http://www.w3.org/1999/xlink" x="0px" y="0px"
	 width="2202.723px" height="2643.672px" viewBox="0.001 -24.506 2202.723 2643.672"
	 enable-background="new 0.001 -24.506 2202.723 2643.672" xml:space="preserve">
<g id="pl">
	<line id="pl1" fill="none" stroke="#000000" stroke-miterlimit="10" x1="526.937" y1="2619.167" x2="0.001" y2="1955.246"/>
	<line id="pl2a" fill="none" stroke="#000000" stroke-miterlimit="10" x1="1908.761" y1="2255.211" x2="202.976" y2="1755.271"/>
	<line id="pl2b" fill="none" stroke="#000000" stroke-miterlimit="10" x1="202.976" y1="1755.271" x2="1908.761" y2="2255.211"/>
	<line id="pl3a" fill="none" stroke="#000000" stroke-miterlimit="10" x1="2053.743" y1="2078.231" x2="1348.833" y2="758.396"/>
	<line id="pl3b" fill="none" stroke="#000000" stroke-miterlimit="10" x1="1348.833" y1="758.396" x2="2053.743" y2="2078.231"/>
</g>
<g id="mask">
	<path id="mask_1_" d="M-33.431-58.982V2665.29h2277.228V-58.982H-33.431z M2055.923,2064.977l-2.18,13.254l-144.982,176.98h0.002
		L526.937,2619.167L0.001,1955.246l202.975-199.975l1145.857-996.875l641.92-782.902l211.971,47.994L2055.923,2064.977z"/>
</g>
<g id="wl">
	
		<line fill="none" stroke="#00FF00" stroke-width="6" stroke-miterlimit="10" x1="-465.474" y1="2834.274" x2="1249.384" y2="2061.958"/>
	
		<line fill="none" stroke="#00FF00" stroke-width="6" stroke-miterlimit="10" x1="1249.384" y1="2061.958" x2="1723.685" y2="1460.25"/>
	
		<line fill="none" stroke="#00FF00" stroke-width="6" stroke-miterlimit="10" x1="1723.685" y1="1460.25" x2="2000.685" y2="305.998"/>
	
		<line fill="none" stroke="#00FF00" stroke-width="6" stroke-miterlimit="10" x1="2000.685" y1="305.998" x2="2148.119" y2="-608.038"/>
</g>
</svg>
