<?xml version="1.0" encoding="utf-8"?>
<!-- Generator: Adobe Illustrator 16.0.0, SVG Export Plug-In . SVG Version: 6.00 Build 0)  -->
<!DOCTYPE svg PUBLIC "-//W3C//DTD SVG 1.1//EN" "http://www.w3.org/Graphics/SVG/1.1/DTD/svg11.dtd">
<svg version="1.1" id="Layer_1" xmlns="http://www.w3.org/2000/svg" xmlns:xlink="http://www.w3.org/1999/xlink" x="0px" y="0px"
	 width="7908.01px" height="4017.484px" viewBox="0 0 7908.01 4017.484" enable-background="new 0 0 7908.01 4017.484"
	 xml:space="preserve">
<path fill-rule="evenodd" clip-rule="evenodd" fill="none" stroke="#1200FF" stroke-miterlimit="10" d="M4917.385,3750.535
	l1280.84-64.992l-1179.854,307.962L4917.385,3750.535z"/>
<path fill-rule="evenodd" clip-rule="evenodd" fill="none" stroke="#1200FF" stroke-miterlimit="10" d="M4917.385,3750.535
	l1280.84-64.992l-1440.82-1091.863l-3.999,1L4917.385,3750.535z"/>
<path fill-rule="evenodd" clip-rule="evenodd" fill="none" stroke="#1200FF" stroke-miterlimit="10" d="M5705.285,1979.752
	l-362.953-55.993l1015.873,1615.801l53.992-111.985l6.998-421.947l137.984-281.965l-219.412-107.791l-105.547,27.801
	L5705.285,1979.752z"/>
<path fill-rule="evenodd" clip-rule="evenodd" fill="none" stroke="#1200FF" stroke-miterlimit="10" d="M5705.285,1979.752
	l202.975-199.975l1705.787,499.94l-1381.826,363.956L5705.285,1979.752z"/>
<path fill-rule="evenodd" clip-rule="evenodd" fill="none" stroke="#1200FF" stroke-miterlimit="10" d="M7054.117,782.902
	L5908.26,1779.777l1705.787,499.94l144.982-176.979L7054.117,782.902z"/>
<path fill-rule="evenodd" clip-rule="evenodd" fill="none" stroke="#1200FF" stroke-miterlimit="10" d="M7054.117,782.902
	L7696.037,0l62.992,2102.738L7054.117,782.902z"/>
<path fill-rule="evenodd" clip-rule="evenodd" fill="none" stroke="#1200FF" stroke-miterlimit="10" d="M7908.01,47.994L7696.037,0
	l62.992,2095.738l2.178-6.256L7908.01,47.994z"/>
<path fill-rule="evenodd" clip-rule="evenodd" fill="none" stroke="#1200FF" stroke-miterlimit="10" d="M2990.626,3749.535
	l1926.759,1l-163.979-1155.855l-1599.429,1.535L2990.626,3749.535z"/>
<path fill-rule="evenodd" clip-rule="evenodd" fill="none" stroke="#1200FF" stroke-miterlimit="10" d="M5342.332,1923.76
	l1015.873,1615.801l-159.98,145.981l-1440.82-1091.863L5342.332,1923.76z"/>
<path fill-rule="evenodd" clip-rule="evenodd" fill="none" stroke="#1200FF" stroke-miterlimit="10" d="M2990.625,3749.517
	l-1280.839-61.992l1179.853,307.961L2990.625,3749.517z"/>
<path fill-rule="evenodd" clip-rule="evenodd" fill="none" stroke="#1200FF" stroke-miterlimit="10" d="M2990.625,3749.517
	l-1280.839-61.992l1440.82-1091.863l3.37,0.535L2990.625,3749.517z"/>
<path fill-rule="evenodd" clip-rule="evenodd" fill="none" stroke="#1200FF" stroke-miterlimit="10" d="M2565.679,1925.745
	L1549.806,3541.542l159.98,145.982l1440.82-1091.863L2565.679,1925.745z"/>
<path fill-rule="evenodd" clip-rule="evenodd" fill="none" stroke="#1200FF" stroke-miterlimit="10" d="M2202.725,1981.738
	l362.955-55.993L1549.806,3541.542l-53.993-111.986l-6.999-421.947l-137.983-281.965l219.412-107.789l105.547,27.801
	L2202.725,1981.738z"/>
<path fill-rule="evenodd" clip-rule="evenodd" fill="none" stroke="#1200FF" stroke-miterlimit="10" d="M2202.725,1981.738
	l-202.976-199.975L293.963,2281.701l1381.827,363.955L2202.725,1981.738z"/>
<path fill-rule="evenodd" clip-rule="evenodd" fill="none" stroke="#1200FF" stroke-miterlimit="10" d="M853.893,784.888
	l1145.856,996.875L293.963,2281.701l-144.982-176.979L853.893,784.888z"/>
<path fill-rule="evenodd" clip-rule="evenodd" fill="none" stroke="#1200FF" stroke-miterlimit="10" d="M853.893,784.888
	L211.973,1.985l-62.992,2102.737L853.893,784.888z"/>
<path fill-rule="evenodd" clip-rule="evenodd" fill="none" stroke="#1200FF" stroke-miterlimit="10" d="M0,49.979L211.973,1.985
	l-62.992,2095.739l-2.179-6.256L0,49.979z"/>
<path fill-rule="evenodd" clip-rule="evenodd" fill="none" stroke="#1200FF" stroke-miterlimit="10" d="M2990.625,3749.517
	l1926.76,1l-163.98-1155.855l-1599.428,1.535L2990.625,3749.517z"/>
<path fill-rule="evenodd" clip-rule="evenodd" fill="none" stroke="#1200FF" stroke-miterlimit="10" d="M2990.625,3749.517
	l1923.76,1v266.967h-1922.76L2990.625,3749.517z"/>
</svg>
