<?xml version="1.0" encoding="utf-8"?>
<!-- Generator: Adobe Illustrator 16.0.0, SVG Export Plug-In . SVG Version: 6.00 Build 0)  -->
<!DOCTYPE svg PUBLIC "-//W3C//DTD SVG 1.1//EN" "http://www.w3.org/Graphics/SVG/1.1/DTD/svg11.dtd">
<svg version="1.1" id="Layer_1" xmlns="http://www.w3.org/2000/svg" xmlns:xlink="http://www.w3.org/1999/xlink" x="0px" y="0px"
	 width="7908.009px" height="4017.484px" viewBox="0 0 7908.009 4017.484" enable-background="new 0 0 7908.009 4017.484"
	 xml:space="preserve">
<path fill-rule="evenodd" clip-rule="evenodd" fill="none" stroke="#000000" stroke-miterlimit="10" d="M-1.01,52.976L210.963,4.982
	L147.972,2100.72l-2.179-6.256L-1.01,52.976z"/>
<path fill-rule="evenodd" clip-rule="evenodd" fill="none" stroke="#000000" stroke-miterlimit="10" d="M852.883,787.884
	L210.963,4.982l-62.992,2102.736L852.883,787.884z"/>
<path fill-rule="evenodd" clip-rule="evenodd" fill="none" stroke="#000000" stroke-miterlimit="10" d="M852.883,787.884
	l1145.856,996.875L292.954,2284.697l-144.982-176.979L852.883,787.884z"/>
<path fill-rule="evenodd" clip-rule="evenodd" fill="none" stroke="#000000" stroke-miterlimit="10" d="M2201.715,1984.734
	l-202.976-199.975L292.954,2284.697l1381.827,363.955L2201.715,1984.734z"/>
<path fill-rule="evenodd" clip-rule="evenodd" fill="none" stroke="#000000" stroke-miterlimit="10" d="M2201.715,1984.734
	l362.955-55.993L1548.796,3544.539l-53.993-111.986l-6.999-421.947l-137.983-281.965l219.412-107.789l105.547,27.801
	L2201.715,1984.734z"/>
<path fill-rule="evenodd" clip-rule="evenodd" fill="none" stroke="#000000" stroke-miterlimit="10" d="M2564.669,1928.741
	L1548.796,3544.539l159.98,145.982l1440.82-1091.863L2564.669,1928.741z"/>
<path fill-rule="evenodd" clip-rule="evenodd" fill="none" stroke="#000000" stroke-miterlimit="10" d="M2989.615,3752.513
	l-1280.839-61.992l1440.82-1091.863l3.37,0.535L2989.615,3752.513z"/>
<path fill-rule="evenodd" clip-rule="evenodd" fill="none" stroke="#000000" stroke-miterlimit="10" d="M2989.615,3752.513
	l-1280.839-61.992l1179.853,307.961L2989.615,3752.513z"/>
<path fill-rule="evenodd" clip-rule="evenodd" fill="none" stroke="#000000" stroke-miterlimit="10" d="M2989.615,3752.513
	l1923.76,1v266.967h-1922.76L2989.615,3752.513z"/>
<path fill-rule="evenodd" clip-rule="evenodd" fill="none" stroke="#000000" stroke-miterlimit="10" d="M2989.616,3752.531
	l1926.759,1l-163.98-1155.855l-1599.429,1.535L2989.616,3752.531z"/>
<path fill-rule="evenodd" clip-rule="evenodd" fill="none" stroke="#000000" stroke-miterlimit="10" d="M7907,50.991L7695.028,2.997
	l62.992,2095.738l2.178-6.256L7907,50.991z"/>
<path fill-rule="evenodd" clip-rule="evenodd" fill="none" stroke="#000000" stroke-miterlimit="10" d="M7053.108,785.899
	l641.92-782.902l62.992,2102.737L7053.108,785.899z"/>
<path fill-rule="evenodd" clip-rule="evenodd" fill="none" stroke="#000000" stroke-miterlimit="10" d="M7053.108,785.899
	L5907.25,1782.774l1705.787,499.94l144.982-176.98L7053.108,785.899z"/>
<path fill-rule="evenodd" clip-rule="evenodd" fill="none" stroke="#000000" stroke-miterlimit="10" d="M5704.276,1982.749
	l202.975-199.975l1705.787,499.94l-1381.826,363.955L5704.276,1982.749z"/>
<path fill-rule="evenodd" clip-rule="evenodd" fill="none" stroke="#000000" stroke-miterlimit="10" d="M5704.276,1982.749
	l-362.953-55.993l1015.873,1615.802l53.992-111.986l6.998-421.947l137.984-281.965l-219.412-107.791l-105.547,27.801
	L5704.276,1982.749z"/>
<path fill-rule="evenodd" clip-rule="evenodd" fill="none" stroke="#000000" stroke-miterlimit="10" d="M5341.323,1926.756
	l1015.873,1615.802l-159.98,145.98l-1440.82-1091.863L5341.323,1926.756z"/>
<path fill-rule="evenodd" clip-rule="evenodd" fill="none" stroke="#000000" stroke-miterlimit="10" d="M4916.375,3753.531
	l1280.84-64.992l-1440.82-1091.863l-4,1L4916.375,3753.531z"/>
<path fill-rule="evenodd" clip-rule="evenodd" fill="none" stroke="#000000" stroke-miterlimit="10" d="M4916.375,3753.531
	l1280.84-64.992l-1179.854,307.963L4916.375,3753.531z"/>
<polyline fill-rule="evenodd" clip-rule="evenodd" fill="none" stroke="#FF0000" stroke-width="6" stroke-miterlimit="10" points="
	7756.043,16.812 7704.961,333.501 7427.961,1487.753 6953.659,2089.46 6095.657,2475.876 5909.432,2830.365 5532.59,3184.882 
	4879.198,3491.472 3026.655,3491.021 2374.636,3185.929 1997.546,2830.779 1820.865,2464.591 955.016,2090.658 476.168,1493.223 
	210.963,349.75 151.596,18.424 "/>
</svg>
