<?xml version="1.0" encoding="utf-8"?>
<!-- Generator: Adobe Illustrator 16.0.0, SVG Export Plug-In . SVG Version: 6.00 Build 0)  -->
<!DOCTYPE svg PUBLIC "-//W3C//DTD SVG 1.1 Tiny//EN" "http://www.w3.org/Graphics/SVG/1.1/DTD/svg11-tiny.dtd">
<svg version="1.1" baseProfile="tiny" id="Layer_1" xmlns="http://www.w3.org/2000/svg" xmlns:xlink="http://www.w3.org/1999/xlink"
	 x="0px" y="0px" width="4917.387px" height="4015.5px" viewBox="0 0 4917.387 4015.5" overflow="auto" xml:space="preserve">
<g id="Layer_2">
	<polygon fill="#FFFFFF" points="148.981,2102.736 146.803,2089.481 141.176,2011.22 819.568,741.038 853.893,782.902 
		892.595,816.572 183.296,2144.622 	"/>
	<polygon fill="#FFFFFF" points="293.963,2279.715 259.544,2237.699 1954.948,1740.804 1999.749,1779.777 2040.51,1819.935 
		387.594,2304.377 	"/>
	<polygon fill="#FFFFFF" points="1549.806,3539.557 1524.171,3486.392 2500.275,1933.85 2565.679,1923.76 2600.016,1963.085 
		1587.337,3573.804 	"/>
	<polygon fill="#FFFFFF" points="1709.784,3685.539 1672.227,3651.269 3117.64,2555.922 3152.889,2593.084 3204.482,2594.162 
		3201.087,2618.156 1771.363,3701.61 	"/>
	<polygon fill="#FFFFFF" points="2990.624,3747.531 2940.474,3745.104 3107.852,2563.339 3117.64,2555.922 3153.976,2594.229 
		3204.482,2594.181 3041.12,3747.575 	"/>
	<polygon fill="#FFFFFF" points="4866.882,3748.527 4702.909,2592.729 4753.407,2592.676 4917.387,2585.626 4917.387,3748.549 	"/>
	<polygon fill="#FFFFFF" points="149.793,2103.726 146.803,2089.481 113.526,1626.717 161.613,11.403 211.974,0.001 260.243,58.872 
		197.631,2162.121 	"/>
	<polygon fill="#FFFFFF" points="2889.64,3993.5 2840.822,3980.758 2940.474,3745.104 3041.12,3747.575 2938.753,4005.524 	"/>
	<polygon fill="#FFFFFF" points="2941.624,4015.504 2940.474,3745.104 3041.12,3747.575 3041.624,4015.496 	"/>
	<polygon fill="#FFFFFF" points="4917.387,4015.5 4866.69,4015.504 4866.882,3748.527 4917.387,3748.549 	"/>
</g>
</svg>
