<?xml version="1.0" encoding="utf-8"?>
<!-- Generator: Adobe Illustrator 16.0.0, SVG Export Plug-In . SVG Version: 6.00 Build 0)  -->
<!DOCTYPE svg PUBLIC "-//W3C//DTD SVG 1.1//EN" "http://www.w3.org/Graphics/SVG/1.1/DTD/svg11.dtd">
<svg version="1.1" id="Layer_1" xmlns="http://www.w3.org/2000/svg" xmlns:xlink="http://www.w3.org/1999/xlink" x="0px" y="0px"
	 width="4917.387px" height="4015.5px" viewBox="0 0 4917.387 4015.5" enable-background="new 0 0 4917.387 4015.5"
	 xml:space="preserve">
<g id="Layer_1_1_">
	<path fill="none" stroke="#000000" stroke-miterlimit="10" d="M2990.626,3747.549l1926.76,1l-163.979-1155.854l-1599.43,1.534
		L2990.626,3747.549z M2990.624,3747.531l-1280.838-61.992L2889.64,3993.5L2990.624,3747.531z M2990.624,3747.531l-1280.838-61.992
		l1440.817-1091.863l3.369,0.535L2990.624,3747.531z M2565.679,1923.76L1549.806,3539.557l159.979,145.982l1440.819-1091.863
		L2565.679,1923.76z M2202.725,1979.752l362.954-55.992L1549.806,3539.557l-53.993-111.979l-6.999-421.946l-137.982-281.965
		l219.412-107.789l105.547,27.801L2202.725,1979.752z M2202.725,1979.752l-202.976-199.975L293.963,2279.715L1675.79,2643.67
		L2202.725,1979.752z M853.893,782.902l1145.856,996.875L293.963,2279.715l-144.979-176.979L853.893,782.902z M853.893,782.902
		L211.973,0l-62.992,2102.736L853.893,782.902z M0,47.995L211.974,0.001l-62.992,2095.738l-2.179-6.258L0,47.995z
		 M2990.624,3747.531l1926.76,1l-163.979-1155.855l-1599.427,1.535L2990.624,3747.531z M2990.624,3747.531l1923.76,1v266.967
		h-1922.76L2990.624,3747.531z"/>
	
		<line fill="none" stroke="#FF0000" stroke-width="5" stroke-miterlimit="10" x1="2202.725" y1="1979.752" x2="1675.79" y2="2643.67"/>
</g>
<g id="Layer_2">
	<polygon fill="#FFFFFF" points="148.981,2102.736 146.803,2089.481 141.176,2011.22 819.568,741.038 853.893,782.902 
		892.595,816.572 183.296,2144.622 	"/>
	<polygon fill="#FFFFFF" points="293.963,2279.715 259.544,2237.699 1954.948,1740.804 1999.749,1779.777 2040.51,1819.935 
		387.594,2304.377 	"/>
	<polygon fill="#FFFFFF" points="1709.784,3685.539 1672.227,3651.269 3117.64,2555.922 3152.889,2593.084 3204.482,2594.162 
		3201.087,2618.156 1771.363,3701.61 	"/>
	<polygon fill="#FFFFFF" points="2990.624,3747.531 2940.474,3745.104 3107.852,2563.339 3117.64,2555.922 3153.976,2594.229 
		3204.482,2594.181 3041.12,3747.575 	"/>
	<polygon fill="#FFFFFF" points="4866.882,3748.527 4702.909,2592.729 4753.407,2592.676 4917.387,2585.626 4917.387,3748.549 	"/>
	<polygon fill="#FFFFFF" points="149.793,2103.726 146.803,2089.481 113.526,1626.717 161.613,11.403 211.974,0.001 260.243,58.872 
		197.631,2162.121 	"/>
	<polygon fill="#FFFFFF" points="2889.64,3993.5 2840.822,3980.758 2940.474,3745.104 3041.12,3747.575 2938.753,4005.524 	"/>
	<polygon fill="#FFFFFF" points="2941.624,4015.504 2940.474,3745.104 3041.12,3747.575 3041.624,4015.496 	"/>
	<polygon fill="#FFFFFF" points="4917.387,4015.5 4866.69,4015.504 4866.882,3748.527 4917.387,3748.549 	"/>
</g>
<g id="Layer_3">
	<line fill="none" stroke="#0000FF" stroke-miterlimit="10" x1="853.893" y1="782.902" x2="148.982" y2="2102.736"/>
	<line fill="none" stroke="#0000FF" stroke-miterlimit="10" x1="1999.749" y1="1779.777" x2="293.963" y2="2279.715"/>
	<line fill="none" stroke="#0000FF" stroke-miterlimit="10" x1="3150.605" y1="2593.676" x2="1709.786" y2="3685.539"/>
	<line fill="none" stroke="#0000FF" stroke-miterlimit="10" x1="3153.976" y1="2594.229" x2="2990.626" y2="3747.549"/>
	<line fill="none" stroke="#0000FF" stroke-miterlimit="10" x1="4753.403" y1="2592.695" x2="4917.387" y2="3748.549"/>
	<line fill="none" stroke="#0000FF" stroke-miterlimit="10" x1="211.974" y1="0.001" x2="148.982" y2="2116"/>
	<line fill="none" stroke="#0000FF" stroke-miterlimit="10" x1="2990.624" y1="3747.531" x2="2889.64" y2="3993.5"/>
	<line fill="none" stroke="#0000FF" stroke-miterlimit="10" x1="2990.626" y1="3747.549" x2="2991.624" y2="4015.498"/>
	<line fill="none" stroke="#0000FF" stroke-miterlimit="10" x1="4914.387" y1="3748.531" x2="4914.387" y2="4015.498"/>
</g>
</svg>
