<?xml version="1.0" encoding="utf-8"?>
<!-- Generator: Adobe Illustrator 16.0.0, SVG Export Plug-In . SVG Version: 6.00 Build 0)  -->
<!DOCTYPE svg PUBLIC "-//W3C//DTD SVG 1.1//EN" "http://www.w3.org/Graphics/SVG/1.1/DTD/svg11.dtd">
<svg version="1.1" id="H_Vertikal" xmlns="http://www.w3.org/2000/svg" xmlns:xlink="http://www.w3.org/1999/xlink" x="0px" y="0px"
	 width="4917.385px" height="4017.484px" viewBox="0 0 4917.385 4017.484" enable-background="new 0 0 4917.385 4017.484"
	 xml:space="preserve">
<path fill="none" stroke="#000000" stroke-miterlimit="10" d="M0,2716.898l159.981-121.236L0.002,2412.439L0,2716.898z M0,3749.517
	V2716.898l159.981-121.236l3.37,0.535L0,3749.517z M0,3749.517l1923.762,1v266.967H1L0,3749.517z M163.351,2596.214l1599.429-1.535
	l163.979,1155.855l-1926.761-1L163.351,2596.214z M4770.582,2089.482l-2.178,6.256L4705.412,0l211.975,47.994L4770.582,2089.482z
	 M4063.492,782.902L4705.412,0l62.992,2102.738L4063.492,782.902z M4768.404,2102.738l-144.982,176.979l-1705.787-499.938
	l1145.857-996.875L4768.404,2102.738z M2714.66,1979.752l202.977-199.975l1705.785,499.939l-1381.826,363.957L2714.66,1979.752z
	 M3241.596,2643.673l105.547-27.801l219.412,107.791l-137.983,281.965l-6.998,421.947l-53.991,111.984L2351.708,1923.759
	l362.952,55.993L3241.596,2643.673z M2351.707,1923.76L3367.58,3539.562l-159.979,145.98l-1440.82-1091.863L2351.707,1923.76z
	 M1762.78,2594.679l3.999-1L3207.6,3685.542l-1280.84,64.992L1762.78,2594.679z M1926.76,3750.535l1280.84-64.992l-1179.854,307.963
	L1926.76,3750.535z"/>
<line fill="none" stroke="#FF0000" stroke-width="6" stroke-miterlimit="10" x1="2714.66" y1="1979.752" x2="3241.595" y2="2643.673" />
</svg>
