<?xml version="1.0" encoding="utf-8"?>
<!-- Generator: Adobe Illustrator 16.0.0, SVG Export Plug-In . SVG Version: 6.00 Build 0)  -->
<!DOCTYPE svg PUBLIC "-//W3C//DTD SVG 1.1 Tiny//EN" "http://www.w3.org/Graphics/SVG/1.1/DTD/svg11-tiny.dtd">
<svg version="1.1" baseProfile="tiny" id="H_Vertikal"
	 xmlns="http://www.w3.org/2000/svg" xmlns:xlink="http://www.w3.org/1999/xlink" x="0px" y="0px" width="4917.385px"
	 height="4017.484px" viewBox="0 0 4917.385 4017.484" xml:space="preserve">
<g>
	<rect x="0.002" y="3750.016" width="1923.759" height="0.018"/>
	<polygon points="1762.78,2594.679 1766.779,2593.679 2351.707,1923.76 2714.66,1979.752 2917.635,1779.777 4063.492,782.902 
		4705.412,0 0,0 0,2716.897 0.002,2412.438 159.981,2595.662 163.351,2596.197 0,3749.517 0.003,3749.517 163.351,2596.214 	"/>
	<polygon points="1,4017.484 0,3749.517 0,4017.484 	"/>
	<polygon points="3241.596,2643.673 3347.145,2615.874 3347.143,2615.873 	"/>
	<polygon points="4768.404,2095.738 4705.412,0 4768.404,2102.737 4623.422,2279.717 3347.145,2615.874 3566.555,2723.664 
		3428.57,3005.628 3421.572,3427.576 3367.58,3539.561 3207.6,3685.542 2027.746,3993.504 1926.76,3750.535 1923.76,3750.533 
		1923.76,4017.484 4917.385,4017.484 4917.385,47.994 4770.582,2089.482 	"/>
	<polygon points="4705.412,0 4917.385,47.994 4917.385,0 	"/>
</g>
</svg>
